<svg width="66" height="66" viewBox="0 0 66 66" fill="none" xmlns="http://www.w3.org/2000/svg">
<path d="M28.05 16.7012H37.95C37.95 15.4204 37.4285 14.1921 36.5002 13.2864C35.5719 12.3807 34.3128 11.872 33 11.872C31.6872 11.872 30.4281 12.3807 29.4998 13.2864C28.5715 14.1921 28.05 15.4204 28.05 16.7012ZM24.3375 16.7012C24.3375 15.5914 24.5616 14.4924 24.9969 13.4671C25.4322 12.4417 26.0703 11.5101 26.8747 10.7253C27.6791 9.94054 28.634 9.31802 29.685 8.89331C30.736 8.4686 31.8624 8.25 33 8.25C34.1376 8.25 35.264 8.4686 36.315 8.89331C37.366 9.31802 38.3209 9.94054 39.1253 10.7253C39.9297 11.5101 40.5678 12.4417 41.0031 13.4671C41.4384 14.4924 41.6625 15.5914 41.6625 16.7012H55.8937C56.3861 16.7012 56.8582 16.892 57.2063 17.2316C57.5544 17.5713 57.75 18.0319 57.75 18.5122C57.75 18.9925 57.5544 19.4531 57.2063 19.7927C56.8582 20.1324 56.3861 20.3232 55.8937 20.3232H52.6267L49.731 49.5668C49.5089 51.8075 48.4392 53.8872 46.7305 55.4001C45.0219 56.9131 42.7968 57.7509 40.4894 57.75H25.5106C23.2036 57.7503 20.9792 56.9122 19.271 55.3993C17.5629 53.8864 16.4936 51.8071 16.2715 49.5668L13.3733 20.3232H10.1062C9.61394 20.3232 9.1418 20.1324 8.79368 19.7927C8.44557 19.4531 8.25 18.9925 8.25 18.5122C8.25 18.0319 8.44557 17.5713 8.79368 17.2316C9.1418 16.892 9.61394 16.7012 10.1062 16.7012H24.3375ZM29.2875 28.1707C29.2875 27.6904 29.0919 27.2298 28.7438 26.8902C28.3957 26.5506 27.9236 26.3598 27.4312 26.3598C26.9389 26.3598 26.4668 26.5506 26.1187 26.8902C25.7706 27.2298 25.575 27.6904 25.575 28.1707V46.2805C25.575 46.7608 25.7706 47.2214 26.1187 47.561C26.4668 47.9007 26.9389 48.0915 27.4312 48.0915C27.9236 48.0915 28.3957 47.9007 28.7438 47.561C29.0919 47.2214 29.2875 46.7608 29.2875 46.2805V28.1707ZM38.5687 26.3598C39.0611 26.3598 39.5332 26.5506 39.8813 26.8902C40.2294 27.2298 40.425 27.6904 40.425 28.1707V46.2805C40.425 46.7608 40.2294 47.2214 39.8813 47.561C39.5332 47.9007 39.0611 48.0915 38.5687 48.0915C38.0764 48.0915 37.6043 47.9007 37.2562 47.561C36.9081 47.2214 36.7125 46.7608 36.7125 46.2805V28.1707C36.7125 27.6904 36.9081 27.2298 37.2562 26.8902C37.6043 26.5506 38.0764 26.3598 38.5687 26.3598ZM19.9667 49.2191C20.1001 50.5632 20.7419 51.8106 21.7669 52.7182C22.7918 53.6257 24.1265 54.1283 25.5106 54.128H40.4894C41.8735 54.1283 43.2082 53.6257 44.2331 52.7182C45.2581 51.8106 45.8999 50.5632 46.0333 49.2191L48.8994 20.3232H17.1006L19.9667 49.2191Z" fill="#128ECC"/>
</svg>
