<svg width="46" height="58" viewBox="0 0 46 58" fill="none" xmlns="http://www.w3.org/2000/svg">
<g filter="url(#filter0_d_1_86)">
<rect x="2.13083" y="3.23691" width="37.7354" height="48.4598" rx="1.1" fill="white" stroke="#128ECC" stroke-width="0.2"/>
<path d="M12.8624 5.68677H4.39276V7.58623H12.8624V5.68677Z" fill="#E8F6F6"/>
<path d="M25.2802 7.05664C25.2802 7.17601 22.9632 7.27832 20.1072 7.27832C17.2491 7.27832 14.932 7.17601 14.932 7.05664C14.932 6.93728 17.2491 6.83496 20.1072 6.83496C22.9654 6.83496 25.2802 6.92875 25.2802 7.05664Z" fill="#128ECC"/>
<path d="M25.0893 9.33545C25.0893 9.45481 20.4552 9.55713 14.7411 9.55713C9.02487 9.55713 4.39294 9.45481 4.39294 9.33545C4.39294 9.21608 9.02487 9.11377 14.7411 9.11377C20.4552 9.11377 25.0893 9.20756 25.0893 9.33545Z" fill="#128ECC"/>
<path d="M25.0893 11.5654C25.0893 11.6848 20.4552 11.7871 14.7411 11.7871C9.02487 11.7871 4.39294 11.6848 4.39294 11.5654C4.39294 11.4461 9.02487 11.3438 14.7411 11.3438C20.4552 11.3438 25.0893 11.4375 25.0893 11.5654Z" fill="#128ECC"/>
<path d="M37.6007 16.8374C37.6007 16.9568 30.1749 17.0591 21.0181 17.0591C11.8582 17.0591 4.43396 16.9568 4.43396 16.8374C4.43396 16.718 11.8582 16.6157 21.0181 16.6157C30.1765 16.6157 37.6007 16.7095 37.6007 16.8374Z" fill="#128ECC"/>
<path d="M37.6007 43.6706C37.6007 43.7241 30.1749 43.7699 21.0181 43.7699C11.8582 43.7699 4.43396 43.7241 4.43396 43.6706C4.43396 43.6171 11.8582 43.5713 21.0181 43.5713C30.1765 43.5713 37.6007 43.6133 37.6007 43.6706Z" fill="#128ECC"/>
<path d="M10.8581 47.4783C10.8581 47.5977 9.47494 47.6999 7.76916 47.6999C6.0618 47.6999 4.68018 47.5977 4.68018 47.4783C4.68018 47.3589 6.06337 47.2566 7.76916 47.2566C9.47494 47.2566 10.8581 47.3589 10.8581 47.4783Z" fill="#128ECC"/>
<path d="M32.1748 28.0383C32.1748 28.1577 26.1133 28.26 18.6371 28.26C11.1578 28.26 5.09784 28.1577 5.09784 28.0383C5.09784 27.919 11.1578 27.8167 18.6371 27.8167C26.1117 27.8167 32.1748 27.919 32.1748 28.0383Z" fill="#128ECC"/>
<path d="M32.0695 20.6943C32.0695 20.8137 26.008 20.916 18.5318 20.916C11.0525 20.916 4.99255 20.8137 4.99255 20.6943C4.99255 20.575 11.0525 20.4727 18.5318 20.4727C26.0064 20.4727 32.0695 20.575 32.0695 20.6943Z" fill="#128ECC"/>
<path d="M32.0771 35.8096C32.0771 35.9289 26.0156 36.0312 18.5394 36.0312C11.0601 36.0312 5.00018 35.9289 5.00018 35.8096C5.00018 35.6902 11.0601 35.5879 18.5394 35.5879C26.014 35.5879 32.0771 35.6902 32.0771 35.8096Z" fill="#128ECC"/>
<path d="M32.7003 30.0247C32.7003 30.1439 26.5208 30.2461 18.8999 30.2461C11.2758 30.2461 5.09784 30.1439 5.09784 30.0247C5.09784 29.9054 11.2758 29.8032 18.8999 29.8032C26.5208 29.7947 32.7003 29.8969 32.7003 30.0247Z" fill="#128ECC"/>
<path d="M32.5951 22.6799C32.5951 22.7992 26.4155 22.9014 18.7946 22.9014C11.1705 22.9014 4.99255 22.7992 4.99255 22.6799C4.99255 22.5607 11.1705 22.4585 18.7946 22.4585C26.4155 22.45 32.5951 22.5522 32.5951 22.6799Z" fill="#128ECC"/>
<path d="M32.6027 37.7949C32.6027 37.9141 26.4232 38.0164 18.8022 38.0164C11.1781 38.0164 5.00018 37.9141 5.00018 37.7949C5.00018 37.6757 11.1781 37.5735 18.8022 37.5735C26.4232 37.565 32.6027 37.6672 32.6027 37.7949Z" fill="#128ECC"/>
<path d="M18.4803 32.008C18.4803 32.1274 15.4134 32.2297 11.632 32.2297C7.84907 32.2297 4.78369 32.1274 4.78369 32.008C4.78369 31.8887 7.84907 31.7864 11.632 31.7864C15.4134 31.7864 18.4803 31.8887 18.4803 32.008Z" fill="#128ECC"/>
<path d="M18.3768 24.6648C18.3768 24.7842 15.3099 24.8865 11.5285 24.8865C7.74555 24.8865 4.68018 24.7842 4.68018 24.6648C4.68018 24.5454 7.74555 24.4431 11.5285 24.4431C15.3099 24.4431 18.3768 24.5454 18.3768 24.6648Z" fill="#128ECC"/>
<path d="M18.3768 39.7795C18.3768 39.8989 15.3099 40.0012 11.5285 40.0012C7.74555 40.0012 4.68018 39.8989 4.68018 39.7795C4.68018 39.6602 7.74555 39.5579 11.5285 39.5579C15.3099 39.5579 18.3768 39.6602 18.3768 39.7795Z" fill="#128ECC"/>
</g>
<path d="M43.2238 3.3367L41.3389 6.60064H37.5707L35.6857 3.3367L37.5707 0.0727539H41.3389L43.2238 3.3367Z" fill="#128ECC"/>
<defs>
<filter id="filter0_d_1_86" x="0.0308228" y="1.13696" width="45.9354" height="56.6597" filterUnits="userSpaceOnUse" color-interpolation-filters="sRGB">
<feFlood flood-opacity="0" result="BackgroundImageFix"/>
<feColorMatrix in="SourceAlpha" type="matrix" values="0 0 0 0 0 0 0 0 0 0 0 0 0 0 0 0 0 0 127 0" result="hardAlpha"/>
<feOffset dx="2" dy="2"/>
<feGaussianBlur stdDeviation="2"/>
<feComposite in2="hardAlpha" operator="out"/>
<feColorMatrix type="matrix" values="0 0 0 0 0 0 0 0 0 0 0 0 0 0 0 0 0 0 0.08 0"/>
<feBlend mode="normal" in2="BackgroundImageFix" result="effect1_dropShadow_1_86"/>
<feBlend mode="normal" in="SourceGraphic" in2="effect1_dropShadow_1_86" result="shape"/>
</filter>
</defs>
</svg>
