<svg width="64" height="52" viewBox="0 0 64 52" fill="none" xmlns="http://www.w3.org/2000/svg">
<path d="M54.0517 1.65786C55.1576 0.582745 56.6294 -0.0116251 58.1563 0.00017232C59.6833 0.0119698 61.146 0.629013 62.2359 1.7211C63.3258 2.81318 63.9576 4.29489 63.9979 5.85357C64.0383 7.41224 63.4841 8.92597 62.4522 10.0753L31.1268 50.0784C30.5882 50.6708 29.9381 51.1462 29.2154 51.4762C28.4927 51.8062 27.7122 51.984 26.9207 51.999C26.1292 52.0139 25.3428 51.8658 24.6086 51.5633C23.8744 51.2609 23.2075 50.8103 22.6478 50.2387L1.87409 29.0267C1.29558 28.4762 0.831571 27.8125 0.509744 27.0749C0.187917 26.3374 0.0148659 25.5412 0.000916365 24.7339C-0.0130331 23.9266 0.132405 23.1247 0.428552 22.3761C0.724699 21.6274 1.16549 20.9473 1.72463 20.3764C2.28376 19.8055 2.94979 19.3554 3.68298 19.053C4.41617 18.7506 5.20149 18.6021 5.99211 18.6163C6.78273 18.6306 7.56243 18.8073 8.28472 19.1359C9.007 19.4645 9.65706 19.9383 10.1961 20.529L26.6361 37.3079L53.9025 1.83423C53.9516 1.77251 54.004 1.71363 54.0595 1.65786H54.0517Z" fill="#128ECC"/>
</svg>
